<svg aria-hidden="true" style="position: absolute; width: 0; height: 0; overflow: hidden;" version="1.1" xmlns="http://www.w3.org/2000/svg" xmlns:xlink="http://www.w3.org/1999/xlink">
<defs>
<symbol id="icon-home3" viewBox="0 0 32 32">
<path d="M32 19l-6-6v-9h-4v5l-6-6-16 16v1h4v10h10v-6h4v6h10v-10h4z"></path>
</symbol>
<symbol id="icon-location" viewBox="0 0 32 32">
<path d="M16 0c-5.523 0-10 4.477-10 10 0 10 10 22 10 22s10-12 10-22c0-5.523-4.477-10-10-10zM16 16c-3.314 0-6-2.686-6-6s2.686-6 6-6 6 2.686 6 6-2.686 6-6 6z"></path>
</symbol>
<symbol id="icon-location2" viewBox="0 0 32 32">
<path d="M16 0c-5.523 0-10 4.477-10 10 0 10 10 22 10 22s10-12 10-22c0-5.523-4.477-10-10-10zM16 16.125c-3.383 0-6.125-2.742-6.125-6.125s2.742-6.125 6.125-6.125 6.125 2.742 6.125 6.125-2.742 6.125-6.125 6.125zM12.125 10c0-2.14 1.735-3.875 3.875-3.875s3.875 1.735 3.875 3.875c0 2.14-1.735 3.875-3.875 3.875s-3.875-1.735-3.875-3.875z"></path>
</symbol>
<symbol id="icon-arrow-right2" viewBox="0 0 32 32">
<path d="M19.414 27.414l10-10c0.781-0.781 0.781-2.047 0-2.828l-10-10c-0.781-0.781-2.047-0.781-2.828 0s-0.781 2.047 0 2.828l6.586 6.586h-19.172c-1.105 0-2 0.895-2 2s0.895 2 2 2h19.172l-6.586 6.586c-0.39 0.39-0.586 0.902-0.586 1.414s0.195 1.024 0.586 1.414c0.781 0.781 2.047 0.781 2.828 0z"></path>
</symbol>
<symbol id="icon-accommodate" viewBox="0 0 32 32">
<path d="M8 28v-15l8-9 8 9v15h-16z"></path>
</symbol>
<symbol id="icon-arrow-long-left" viewBox="0 0 20 20">
<path d="M0.75 10l5.25-5.5v3.5h13v4h-13v3.5l-5.25-5.5z"></path>
</symbol>
<symbol id="icon-arrow-long-right" viewBox="0 0 20 20">
<path d="M14 15.5v-3.5h-13v-4h13v-3.5l5.25 5.5-5.25 5.5z"></path>
</symbol>
<symbol id="icon-chevron-left" viewBox="0 0 20 20">
<path d="M12.452 4.516c0.446 0.436 0.481 1.043 0 1.576l-3.747 3.908 3.747 3.908c0.481 0.533 0.446 1.141 0 1.574-0.445 0.436-1.197 0.408-1.615 0-0.418-0.406-4.502-4.695-4.502-4.695-0.223-0.217-0.335-0.502-0.335-0.787s0.112-0.57 0.335-0.789c0 0 4.084-4.287 4.502-4.695s1.17-0.436 1.615 0z"></path>
</symbol>
<symbol id="icon-chevron-right" viewBox="0 0 20 20">
<path d="M9.163 4.516c0.418 0.408 4.502 4.695 4.502 4.695 0.223 0.219 0.335 0.504 0.335 0.789s-0.112 0.57-0.335 0.787c0 0-4.084 4.289-4.502 4.695-0.418 0.408-1.17 0.436-1.615 0-0.446-0.434-0.481-1.041 0-1.574l3.747-3.908-3.747-3.908c-0.481-0.533-0.446-1.141 0-1.576s1.197-0.409 1.615 0z"></path>
</symbol>
<symbol id="icon-chevron-small-left" viewBox="0 0 20 20">
<path d="M12.141 13.418c0.268 0.271 0.268 0.709 0 0.978s-0.701 0.272-0.969 0l-3.83-3.908c-0.268-0.27-0.268-0.707 0-0.979l3.83-3.908c0.267-0.27 0.701-0.27 0.969 0s0.268 0.709 0 0.978l-3.141 3.421 3.141 3.418z"></path>
</symbol>
<symbol id="icon-chevron-small-right" viewBox="0 0 20 20">
<path d="M11 10l-3.141-3.42c-0.268-0.27-0.268-0.707 0-0.978 0.268-0.27 0.701-0.27 0.969 0l3.83 3.908c0.268 0.271 0.268 0.709 0 0.979l-3.83 3.908c-0.267 0.272-0.701 0.27-0.969 0s-0.268-0.707 0-0.978l3.141-3.419z"></path>
</symbol>
<symbol id="icon-chevron-thin-left" viewBox="0 0 20 20">
<path d="M13.891 17.418c0.268 0.272 0.268 0.709 0 0.979s-0.701 0.271-0.969 0l-7.83-7.908c-0.268-0.27-0.268-0.707 0-0.979l7.83-7.908c0.268-0.27 0.701-0.27 0.969 0s0.268 0.709 0 0.979l-7.141 7.419 7.141 7.418z"></path>
</symbol>
<symbol id="icon-chevron-thin-right" viewBox="0 0 20 20">
<path d="M13.25 10l-7.141-7.42c-0.268-0.27-0.268-0.707 0-0.979 0.268-0.27 0.701-0.27 0.969 0l7.83 7.908c0.268 0.271 0.268 0.709 0 0.979l-7.83 7.908c-0.268 0.271-0.701 0.27-0.969 0s-0.268-0.707 0-0.979l7.141-7.417z"></path>
</symbol>
<symbol id="icon-controller-play" viewBox="0 0 20 20">
<path d="M15 10.001c0 0.299-0.305 0.514-0.305 0.514l-8.561 5.303c-0.624 0.409-1.134 0.106-1.134-0.669v-10.297c0-0.777 0.51-1.078 1.135-0.67l8.561 5.305c-0.001 0 0.304 0.215 0.304 0.514z"></path>
</symbol>
<symbol id="icon-triangle-right" viewBox="0 0 20 20">
<path d="M15 10l-9 5v-10l9 5z"></path>
</symbol>
<symbol id="icon-clock" viewBox="0 0 20 20">
<path d="M10 0.4c-5.303 0-9.601 4.298-9.601 9.6 0 5.303 4.298 9.601 9.601 9.601 5.301 0 9.6-4.298 9.6-9.601s-4.299-9.6-9.6-9.6zM9.999 17.6c-4.197 0-7.6-3.402-7.6-7.6 0-4.197 3.402-7.6 7.6-7.6 4.197 0 7.601 3.402 7.601 7.6 0 4.197-3.404 7.6-7.601 7.6zM11 9.33v-5.33h-2v6.245l-3.546 2.048 1 1.732 4.115-2.377c0.238-0.137 0.431-0.473 0.431-0.748v-0.168l4.24-4.166c-0.198-0.271-0.411-0.529-0.647-0.766l-3.593 3.53z"></path>
</symbol>
<symbol id="icon-location-pin" viewBox="0 0 20 20">
<path d="M10 2.009c-2.762 0-5 2.229-5 4.99 0 4.774 5 11 5 11s5-6.227 5-11c0-2.76-2.238-4.99-5-4.99zM10 9.76c-1.492 0-2.7-1.209-2.7-2.7s1.208-2.7 2.7-2.7c1.49 0 2.699 1.209 2.699 2.7s-1.209 2.7-2.699 2.7z"></path>
</symbol>
<symbol id="icon-phone" viewBox="0 0 20 20">
<path d="M11.229 11.229c-1.583 1.582-3.417 3.096-4.142 2.371-1.037-1.037-1.677-1.941-3.965-0.102-2.287 1.838-0.53 3.064 0.475 4.068 1.16 1.16 5.484 0.062 9.758-4.211 4.273-4.274 5.368-8.598 4.207-9.758-1.005-1.006-2.225-2.762-4.063-0.475s-0.936 2.927 0.103 3.965c0.722 0.725-0.791 2.559-2.373 4.142z"></path>
</symbol>
<symbol id="icon-quote" viewBox="0 0 20 20">
<path d="M5.315 3.401c-1.61 0-2.916 1.343-2.916 3s1.306 3 2.916 3c2.915 0 0.972 5.799-2.916 5.799v1.4c6.939 0.001 9.658-13.199 2.916-13.199zM13.715 3.401c-1.609 0-2.915 1.343-2.915 3s1.306 3 2.915 3c2.916 0 0.973 5.799-2.915 5.799v1.4c6.938 0.001 9.657-13.199 2.915-13.199z"></path>
</symbol>
<symbol id="icon-star" viewBox="0 0 20 20">
<path d="M10 1.3l2.388 6.722h6.412l-5.232 3.948 1.871 6.928-5.439-4.154-5.438 4.154 1.87-6.928-5.233-3.948h6.412l2.389-6.722z"></path>
</symbol>
<symbol id="icon-skype-with-circle" viewBox="0 0 20 20">
<path d="M12.164 9.852c-0.23-0.154-0.514-0.287-0.841-0.395-0.323-0.107-0.688-0.205-1.087-0.293-0.314-0.074-0.543-0.133-0.679-0.172-0.133-0.037-0.266-0.090-0.396-0.158-0.124-0.064-0.223-0.141-0.293-0.229-0.065-0.082-0.098-0.18-0.098-0.295 0-0.188 0.1-0.346 0.305-0.484 0.212-0.143 0.499-0.215 0.851-0.215 0.38 0 0.656 0.064 0.821 0.193 0.17 0.133 0.318 0.322 0.44 0.562 0.106 0.188 0.201 0.318 0.294 0.4 0.099 0.090 0.241 0.137 0.423 0.137 0.201 0 0.37-0.072 0.505-0.217 0.134-0.143 0.202-0.307 0.202-0.488 0-0.188-0.053-0.383-0.154-0.576s-0.262-0.379-0.477-0.553c-0.215-0.174-0.487-0.312-0.811-0.416-0.322-0.104-0.709-0.156-1.147-0.156-0.55 0-1.035 0.078-1.443 0.234-0.413 0.158-0.734 0.388-0.954 0.683-0.222 0.297-0.334 0.641-0.334 1.023 0 0.4 0.107 0.74 0.318 1.012 0.207 0.268 0.492 0.482 0.844 0.637 0.346 0.15 0.778 0.283 1.289 0.396 0.374 0.080 0.678 0.158 0.901 0.23 0.214 0.068 0.391 0.168 0.525 0.297 0.127 0.123 0.189 0.279 0.189 0.481 0 0.252-0.119 0.457-0.363 0.631-0.251 0.176-0.584 0.264-0.99 0.264-0.296 0-0.535-0.043-0.714-0.131-0.177-0.086-0.315-0.195-0.412-0.326-0.101-0.137-0.195-0.311-0.282-0.516-0.078-0.189-0.176-0.334-0.289-0.434-0.117-0.104-0.264-0.154-0.432-0.154-0.207 0-0.379 0.066-0.514 0.195-0.136 0.133-0.205 0.293-0.205 0.479 0 0.295 0.106 0.604 0.315 0.912 0.207 0.309 0.479 0.557 0.81 0.74 0.462 0.252 1.054 0.379 1.76 0.379 0.588 0 1.104-0.094 1.536-0.277 0.435-0.186 0.771-0.449 0.998-0.779 0.228-0.332 0.344-0.713 0.344-1.129 0-0.348-0.067-0.648-0.2-0.891s-0.32-0.443-0.555-0.601zM10 0.4c-5.302 0-9.6 4.298-9.6 9.6s4.298 9.6 9.6 9.6 9.6-4.298 9.6-9.6-4.298-9.6-9.6-9.6zM12.301 15.375c-0.487 0-0.946-0.125-1.348-0.348-0.291 0.057-0.592 0.086-0.9 0.086-2.713 0-4.914-2.266-4.914-5.057 0-0.35 0.035-0.69 0.1-1.018-0.249-0.434-0.392-0.94-0.392-1.481 0-1.619 1.276-2.934 2.851-2.934 0.557 0 1.076 0.166 1.516 0.451 0.272-0.049 0.554-0.074 0.839-0.074 2.715 0 4.915 2.264 4.915 5.057 0 0.371-0.039 0.734-0.113 1.084 0.189 0.393 0.296 0.834 0.296 1.303-0.001 1.618-1.276 2.931-2.85 2.931z"></path>
</symbol>
<symbol id="icon-skype" viewBox="0 0 20 20">
<path d="M18.671 12.037c0.132-0.623 0.203-1.272 0.203-1.938 0-4.986-3.93-9.029-8.777-9.029-0.511 0-1.012 0.047-1.5 0.133-0.785-0.508-1.712-0.803-2.707-0.803-2.811 0-5.090 2.344-5.090 5.237 0 0.965 0.256 1.871 0.699 2.648-0.116 0.586-0.178 1.194-0.178 1.815 0 4.986 3.93 9.029 8.775 9.029 0.551 0 1.087-0.051 1.607-0.15 0.717 0.396 1.535 0.621 2.406 0.621 2.811 0 5.090-2.344 5.090-5.236 0.001-0.837-0.19-1.626-0.528-2.327zM14.599 14.416c-0.406 0.59-1.006 1.059-1.783 1.391-0.769 0.33-1.692 0.496-2.742 0.496-1.26 0-2.317-0.227-3.143-0.678-0.59-0.328-1.076-0.771-1.445-1.318-0.372-0.555-0.561-1.104-0.561-1.633 0-0.33 0.123-0.617 0.365-0.852 0.24-0.232 0.549-0.352 0.916-0.352 0.301 0 0.562 0.094 0.773 0.277 0.202 0.176 0.375 0.438 0.514 0.773 0.156 0.367 0.326 0.676 0.505 0.92 0.172 0.234 0.42 0.432 0.735 0.586 0.318 0.154 0.748 0.232 1.275 0.232 0.725 0 1.32-0.158 1.768-0.473 0.438-0.309 0.65-0.676 0.65-1.127 0-0.357-0.111-0.637-0.34-0.857-0.238-0.228-0.555-0.408-0.936-0.531-0.399-0.127-0.941-0.266-1.611-0.41-0.91-0.201-1.683-0.439-2.299-0.707-0.63-0.275-1.137-0.658-1.508-1.137-0.375-0.483-0.567-1.092-0.567-1.807 0-0.682 0.2-1.297 0.596-1.828 0.393-0.525 0.965-0.935 1.703-1.217 0.728-0.277 1.596-0.418 2.576-0.418 0.783 0 1.473 0.094 2.047 0.277 0.578 0.186 1.066 0.436 1.449 0.744 0.387 0.311 0.674 0.643 0.854 0.986 0.182 0.35 0.275 0.695 0.275 1.031 0 0.322-0.121 0.615-0.361 0.871-0.24 0.258-0.543 0.387-0.9 0.387-0.324 0-0.58-0.082-0.756-0.242-0.164-0.148-0.336-0.383-0.524-0.717-0.219-0.428-0.484-0.766-0.788-1.002-0.295-0.232-0.788-0.35-1.466-0.35-0.629 0-1.141 0.131-1.519 0.387-0.368 0.249-0.545 0.532-0.545 0.866 0 0.207 0.058 0.379 0.176 0.525 0.125 0.158 0.301 0.295 0.523 0.41 0.23 0.12 0.467 0.214 0.705 0.282 0.244 0.070 0.654 0.172 1.215 0.307 0.711 0.156 1.363 0.332 1.939 0.521 0.585 0.193 1.090 0.43 1.502 0.705 0.42 0.283 0.754 0.645 0.989 1.076 0.237 0.434 0.357 0.969 0.357 1.59 0.001 0.745-0.206 1.422-0.613 2.016z"></path>
</symbol>
<symbol id="icon-facebook-with-circle" viewBox="0 0 20 20">
<path d="M10 0.4c-5.302 0-9.6 4.298-9.6 9.6s4.298 9.6 9.6 9.6 9.6-4.298 9.6-9.6-4.298-9.6-9.6-9.6zM12.274 7.034h-1.443c-0.171 0-0.361 0.225-0.361 0.524v1.042h1.805l-0.273 1.486h-1.532v4.461h-1.703v-4.461h-1.545v-1.486h1.545v-0.874c0-1.254 0.87-2.273 2.064-2.273h1.443v1.581z"></path>
</symbol>
<symbol id="icon-instagram-with-circle" viewBox="0 0 20 20">
<path d="M13 10c0 1.657-1.343 3-3 3s-3-1.343-3-3c0-0.171 0.018-0.338 0.049-0.5h-1.049v3.997c0 0.278 0.225 0.503 0.503 0.503h6.995c0.277 0 0.502-0.225 0.502-0.503v-3.997h-1.049c0.031 0.162 0.049 0.329 0.049 0.5zM10 12c1.104 0 2-0.896 2-2s-0.896-2-2-2-2 0.896-2 2 0.896 2 2 2zM12.4 7.9h1.199c0.166 0 0.301-0.135 0.301-0.3v-1.199c0-0.166-0.135-0.301-0.301-0.301h-1.199c-0.166 0-0.301 0.135-0.301 0.301v1.199c0.001 0.165 0.136 0.3 0.301 0.3zM10 0.4c-5.302 0-9.6 4.298-9.6 9.6s4.298 9.6 9.6 9.6c5.302 0 9.6-4.298 9.6-9.6s-4.298-9.6-9.6-9.6zM15 13.889c0 0.611-0.5 1.111-1.111 1.111h-7.778c-0.611 0-1.111-0.5-1.111-1.111v-7.778c0-0.611 0.5-1.111 1.111-1.111h7.778c0.611 0 1.111 0.5 1.111 1.111v7.778z"></path>
</symbol>
<symbol id="icon-twitter-with-circle" viewBox="0 0 20 20">
<path d="M10 0.4c-5.302 0-9.6 4.298-9.6 9.6s4.298 9.6 9.6 9.6 9.6-4.298 9.6-9.6-4.298-9.6-9.6-9.6zM13.905 8.264c0.004 0.082 0.005 0.164 0.005 0.244 0 2.5-1.901 5.381-5.379 5.381-1.068 0-2.062-0.312-2.898-0.85 0.147 0.018 0.298 0.025 0.451 0.025 0.886 0 1.701-0.301 2.348-0.809-0.827-0.016-1.525-0.562-1.766-1.312 0.115 0.021 0.233 0.033 0.355 0.033 0.172 0 0.34-0.023 0.498-0.066-0.865-0.174-1.517-0.938-1.517-1.854v-0.023c0.255 0.141 0.547 0.227 0.857 0.237-0.508-0.34-0.841-0.918-0.841-1.575 0-0.346 0.093-0.672 0.256-0.951 0.933 1.144 2.325 1.896 3.897 1.977-0.033-0.139-0.049-0.283-0.049-0.432 0-1.043 0.846-1.891 1.891-1.891 0.543 0 1.035 0.23 1.38 0.598 0.431-0.086 0.835-0.242 1.2-0.459-0.141 0.441-0.44 0.812-0.831 1.047 0.383-0.047 0.747-0.148 1.086-0.299-0.253 0.379-0.574 0.713-0.943 0.979z"></path>
</symbol>
<symbol id="icon-youtube-with-circle" viewBox="0 0 20 20">
<path d="M11.603 9.833l-2.246-1.048c-0.196-0.091-0.357 0.011-0.357 0.228v1.974c0 0.217 0.161 0.319 0.357 0.228l2.245-1.048c0.197-0.092 0.197-0.242 0.001-0.334zM10 0.4c-5.302 0-9.6 4.298-9.6 9.6s4.298 9.6 9.6 9.6 9.6-4.298 9.6-9.6-4.298-9.6-9.6-9.6zM10 13.9c-4.914 0-5-0.443-5-3.9s0.086-3.9 5-3.9 5 0.443 5 3.9-0.086 3.9-5 3.9z"></path>
</symbol>
</defs>
</svg>
